<?xml version="1.0" encoding="UTF-8" standalone="no"?>
<!-- Uploaded to: SVG Repo, www.svgrepo.com, Generator: SVG Repo Mixer Tools -->

<svg
   height="600"
   width="800"
   version="1.1"
   id="_x32_"
   viewBox="0 -100 512 584"
   xml:space="preserve"
   sodipodi:docname="flexibility.svg"
   inkscape:version="1.3.2 (091e20e, 2023-11-25, custom)"
   xmlns:inkscape="http://www.inkscape.org/namespaces/inkscape"
   xmlns:sodipodi="http://sodipodi.sourceforge.net/DTD/sodipodi-0.dtd"
   xmlns="http://www.w3.org/2000/svg"
   xmlns:svg="http://www.w3.org/2000/svg"><defs
   id="defs1" /><sodipodi:namedview
   id="namedview1"
   pagecolor="#ffffff"
   bordercolor="#000000"
   borderopacity="0.25"
   inkscape:showpageshadow="2"
   inkscape:pageopacity="0.0"
   inkscape:pagecheckerboard="0"
   inkscape:deskcolor="#d1d1d1"
   inkscape:zoom="1.52625"
   inkscape:cx="399.6724"
   inkscape:cy="295.1679"
   inkscape:window-width="2560"
   inkscape:window-height="1417"
   inkscape:window-x="1912"
   inkscape:window-y="-8"
   inkscape:window-maximized="1"
   inkscape:current-layer="_x32_" />
<style
   type="text/css"
   id="style1">
	.st0{fill:#000000;}
</style>
<g
   id="g1"
   transform="matrix(1,0,0,1.0805282,0,-84.614563)"><path
     d="m 214.0375,352.88125 c -1.609,0 -3.186,0.40625 -4.69,1.34125 l -19.75125,12.27 c -2.732,1.708 -4.1875,4.577 -4.2125,7.61 0.009,1.618 0.423,3.19675 1.35,4.70875 1.699,2.74 4.59425,4.204 7.61125,4.22 1.626,0 3.204,-0.422 4.7,-1.35 l 19.72625,-12.2625 c 2.765,-1.725 4.21925,-4.6025 4.23625,-7.6175 -0.009,-1.618 -0.424,-3.195 -1.35,-4.7 -1.708,-2.749 -4.587,-4.213 -7.62,-4.22 z"
     id="path8" /><path
     d="m 180.09875,323.9325 c -1.602,0 -3.18725,0.415 -4.69125,1.35 l -0.61875,0.375 c -1.325,1.155 -2.7155,2.25925 -4.2525,3.21125 l -16.97,10.5625 c -1.358,1.61 -2.1155,3.62675 -2.1225,5.72375 0.008,1.61 0.422,3.2035 1.35,4.7075 1.7,2.74 4.59375,4.204 7.61875,4.22 1.618,0 3.196,-0.423 4.7,-1.35 L 184.83125,340.48 c 2.765,-1.716 4.22025,-4.6115 4.23625,-7.6275 -0.008,-1.619 -0.423,-3.18725 -1.35,-4.69125 -1.707,-2.748 -4.57775,-4.21275 -7.61875,-4.22875 z"
     style="fill:#e1be6a;fill-opacity:1"
     id="path6" /><path
     d="m 170.9425,289.895 -10.17125,6.3175 c -1.708,-2.756 -4.587,-4.203 -7.62,-4.235 -1.609,0.017 -3.18725,0.4225 -4.69125,1.3575 l -19.75125,12.27 c -2.732,1.699 -4.19525,4.57825 -4.21125,7.61125 0,1.61 0.423,3.196 1.35,4.7 1.699,2.74 4.593,4.2115 7.61,4.2275 1.626,-0.008 3.20475,-0.422 4.70875,-1.35 l 0.5775,-0.36625 c 1.325,-1.155 2.73225,-2.2685 4.27625,-3.2275 l 16.9625,-10.5375 c 1.365,-1.626 2.12175,-3.6435 2.13875,-5.7575 -0.009,-1.611 -0.423,-3.18775 -1.35,-4.68375 z"
     style="fill:#e1be6a;fill-opacity:1"
     id="path5" /><path
     d="m 357.71,150.91625 c -3.724,3.057 -7.578,6.11375 -11.49,8.94375 -6.52099,4.7 -12.98451,8.8465 -19.5875,11.6275 l -0.0562,0.0162 c -4.221,1.724 -8.32775,2.15575 -12.10875,2.16375 -6.04999,-0.033 -11.62726,-1.05725 -17.41625,-1.91125 -5.77399,-0.87 -11.69276,-1.64175 -17.86375,-1.63375 -10.02599,0.033 -20.60551,1.86201 -33.0225,9.155 -9.17999,5.39999 -17.93851,13.09226 -25.4675,21.03625 -7.54499,7.94399 -13.872,16.10876 -18.53,22.41875 -3.139,4.245 -5.4145,7.52925 -7.2775,9.93625 -1.495,1.804 -2.829,5.61 -2.78,9.35 -0.009,2.602 0.585,5.07475 1.455,6.74875 0.91,1.699 1.82875,2.58525 3.11375,3.21125 0.886,0.423 2.08225,0.77375 4.04125,0.77375 2.407,0.016 6.001,-0.611 10.79,-2.635 48.11295,-20.27998 96.4625,-26.346 97.0475,-26.46 3.358,-0.423 6.77275,0.60275 9.33375,2.81375 l 65.92,56.82125 c 1.073,-2.194 2.097,-4.424 2.935,-6.635 1.651,-4.229 2.6345,-8.311 2.7725,-11.205 L 389.78,260.395 429.745,225.52 Z"
     style="fill:#e1be6a;fill-opacity:1"
     id="path4" /><path
     d="m 154.3,150.90875 -73.18,75.7925 38.5975,33.695 0.26875,5.0575 c 0.138,3.268 1.39825,8.00875 3.40625,12.81375 0.252,0.635 0.60175,1.2535 0.87875,1.8875 l 11.5375,-7.1725 c 5.37499,-3.333 11.41576,-4.96 17.34375,-4.96 10.96099,-0.016 21.75251,5.53851 27.9725,15.5475 h -0.007 c 3.278,5.26899 4.879,11.19726 4.935,17.01125 8.78999,1.611 16.93801,6.74826 22.02,14.93625 h -0.007 c 2.617,4.212 4.14575,8.83 4.69875,13.49 0.422,-0.017 0.85425,-0.09 1.27625,-0.09 10.96099,-0.024 21.74451,5.52226 27.9725,15.55625 v -0.0163 c 3.334,5.36699 4.95925,11.43276 4.95125,17.34375 0,0.334 -0.0563,0.65775 -0.0563,0.98375 9.01799,0.797 17.62951,5.67551 22.7925,13.9775 3.041,4.887 4.5205,10.40026 4.5125,15.79125 0.008,2.619 -0.365,5.229 -1.04,7.75 1.155,0.642 2.30025,1.33325 3.47125,1.82125 3.528,1.496 7.05875,2.2355 10.05875,2.2275 3.35,-0.017 5.9515,-0.797 8.3425,-2.44 1.496,-1.065 3.0235,-2.666 4.4875,-5 -1.041,-0.666 -2.082,-1.34175 -3.025,-2.00875 -5.30099,-3.805 -9.08175,-7.4325 -9.26875,-7.6025 -3.586,-3.423 -3.7155,-9.11525 -0.2925,-12.70125 3.431,-3.585 9.12275,-3.71475 12.70875,-0.28375 l 0.0413,0.0312 0.2025,0.195 0.87875,0.7975 c 0.781,0.691 1.918,1.6675 3.26,2.7325 2.675,2.154 6.30275,4.68225 9.27875,6.08125 0.212,0.106 0.39775,0.17925 0.59375,0.26125 0.529,0.032 1.057,0.0645 1.585,0.1775 2.911,0.594 4.6605,0.85575 5.8225,0.83875 0.895,-0.007 1.593,-0.081 2.845,-0.455 1.244,-0.374 3.0165,-1.11275 5.4975,-2.52875 3.675,-2.147 5.0245,-4.3425 5.9675,-6.4725 0.098,-0.212 0.14775,-0.423 0.22875,-0.635 -7.35899,-1.919 -13.55575,-5.24525 -18.30375,-8.45625 -7.21299,-4.912 -11.36,-9.69125 -11.71,-10.08125 l 0.009,0.006 c -3.252,-3.756 -2.84575,-9.42425 0.91125,-12.67625 3.749,-3.245 9.39975,-2.83775 12.64375,0.88625 h 0.007 l 0.0575,0.0737 0.34875,0.37375 c 0.334,0.341 0.87825,0.89425 1.58625,1.56125 1.439,1.349 3.578,3.18625 6.245,4.99125 5.35099,3.659 12.60251,7.00175 20.3925,6.96875 h 0.0238 c 0.334,-0.016 0.658,-0.0735 1,-0.0575 l 0.57875,0.007 c 1.618,-0.024 2.47975,-0.333 3.33375,-0.805 0.837,-0.48 1.69875,-1.25125 2.54375,-2.47125 1.732,-2.39 2.93675,-6.72475 2.87875,-10.03375 0.041,-1.984 -0.4475,-3.5295 -0.5125,-3.5775 l 0.0238,-0.0175 c -0.528,-0.707 -0.975,-1.45575 -1.325,-2.24375 -1.261,-0.391 -2.4885,-0.821 -3.6675,-1.285 -5.09799,-2 -9.5295,-4.5855 -13.2375,-7.1225 -7.39099,-5.07499 -11.905,-10.00225 -12.205,-10.31125 -3.359,-3.675 -3.10725,-9.35025 0.54375,-12.70125 3.651,-3.35 9.3265,-3.1055 12.6775,0.5375 h 0.007 l 0.0325,0.0312 0.22,0.22875 1.0075,1 c 0.911,0.87 2.27725,2.12125 4.00125,3.51125 3.44,2.781 8.31051,6.0745 13.5225,8.1075 1.682,0.667 3.3895,1.18725 5.0975,1.56125 0.935,-0.244 1.8945,-0.41375 2.8875,-0.41375 2.797,0.008 5.71575,-0.90225 8.22875,-2.45625 2.512,-1.537 4.49625,-3.732 5.36625,-5.415 0.544,-1.008 0.65875,-1.68325 0.66875,-1.91625 l -0.025,-0.0412 -0.0325,-0.0163 -75.27,-64.8875 c -0.781,0.129 -1.56975,0.25875 -2.51375,0.41375 -5.01699,0.838 -12.21326,2.171 -20.81625,4.09 -17.20498,3.854 -40.06927,10.10701 -62.25125,19.49 -7.06699,2.969 -13.74176,4.513 -20.10875,4.53 -5.13099,0 -10.058,-1.05625 -14.36,-3.12125 -4.309,-2.049 -7.919,-5.0585 -10.635,-8.4975 -5.44799,-6.95299 -7.546,-15.18101 -7.57,-23.085 0.049,-8.49699 2.38951,-16.97751 7.8375,-24.0675 1.106,-1.415 3.627,-5.002 6.895,-9.45 3.31,-4.472 7.48925,-9.95101 12.44125,-15.765 5.87899,-6.88799 12.83201,-14.28826 20.8,-21.12625 -0.382,0.058 -0.77225,0.09 -1.14625,0.155 -5.79799,0.846 -11.35901,1.88725 -17.425,1.91125 -3.79,-0.008 -7.9205,-0.4395 -12.1575,-2.1875 -6.60299,-2.781 -13.06651,-6.9275 -19.5875,-11.6275 -3.936,-2.846 -7.774,-5.88775 -11.515,-8.95375 z"
     style="display:inline;fill:#e1be6a;fill-opacity:1"
     id="path3" /><path
     d="m 386.23375,78.95375 -49.86125,49.86125 4.635,4.81375 c -3.302,2.667 -6.6435,5.26875 -9.8875,7.57875 -5.23599,3.74 -10.26175,6.7405 -13.66875,8.1475 -0.22,0.098 -1.14575,0.358 -2.98375,0.35 -2.936,0.032 -7.84801,-0.71575 -13.865,-1.63375 -6.04199,-0.911 -13.26926,-1.90225 -21.41625,-1.91125 -7.10799,-0.024 -14.94576,0.83825 -23.19875,3.10625 -8.23599,-2.26 -16.06001,-3.1065 -23.15,-3.0975 -8.15599,0 -15.38301,0.99225 -21.425,1.91125 -6.01699,0.918 -10.92,1.66675 -13.855,1.63375 -1.846,0.016 -2.7655,-0.26 -2.9525,-0.35 -3.635,-1.488 -9.11551,-4.80525 -14.7575,-8.91125 -2.919,-2.122 -5.8955,-4.44875 -8.8475,-6.83875 l 4.6275,-4.7975 L 125.76625,78.955 0,209.21625 49.86125,259.0775 64.45625,243.96125 96.6725,272.0775 c 0.901999,5.39099 2.601252,10.4815 4.56125,15.3125 1.276,3.074 2.6755,6.03275 4.1075,8.81375 -3.115,5.15599 -4.81475,11.04326 -4.79875,17.01125 -0.008,5.91999 1.618,11.96876 4.96,17.34375 5.08199,8.17199 13.22226,13.3115 22.01125,14.9375 0.05,5.81399 1.66025,11.74226 4.93625,17.01125 6.22099,10.00199 16.98676,15.547 27.96375,15.53 0.423,0 0.85425,-0.0653 1.27625,-0.0813 0.553,4.651 2.082,9.2855 4.7,13.4975 6.22099,10.00099 16.99401,15.547 27.955,15.53 1.09,0 2.17175,-0.114 3.26875,-0.22 0.52,4.188 1.91125,8.367 4.26125,12.14 5.66799,9.10799 15.47401,14.16525 25.45,14.14125 5.38299,0.008 10.89625,-1.4565 15.79125,-4.4975 l 14.94625,-9.3 c 2.944,1.902 6.03225,3.5765 9.27625,4.9425 6.04199,2.545 12.57126,4.10575 19.36125,4.11375 7.44799,0.033 15.31126,-2.008 22.07625,-6.765 4.407,-3.073 8.13925,-7.2855 11.19625,-12.2525 0.472,0.016 0.85325,0.0983 1.34125,0.10625 3.098,0 6.49675,-0.46475 9.86375,-1.51375 3.39,-1.032 6.75725,-2.57775 10.35125,-4.63375 8.56999,-4.83 13.70925,-11.93751 16.20625,-18.0275 0.553,-1.333 0.95075,-2.58525 1.30875,-3.79625 2.074,-0.658 4.05775,-1.46375 5.85375,-2.50375 6.62699,-3.814 10.946,-9.61176 13.605,-15.43375 2.667,-5.87999 3.83775,-11.98626 3.85375,-17.85625 0,-0.578 -0.0737,-1.1385 -0.0987,-1.7075 4.334,-1.772 8.22825,-4.23575 11.54625,-7.13875 3.399,-2.977 6.253,-6.4405 8.375,-10.3925 2.115,-3.935 3.53075,-8.44 3.53875,-13.375 0.008,-3.212 -0.651,-6.59525 -2.09,-9.76625 -0.464,-1.008 -1.123,-1.935 -1.725,-2.87 2.53,-4.53 5.106,-9.63451 7.22,-15.1475 1.586,-4.172 2.921,-8.54625 3.685,-13.14125 l 33.59,-29.3125 15.74125,16.3025 L 512,209.21625 Z M 154.3,150.90875 c 3.741,3.066 7.579,6.10775 11.515,8.95375 6.52099,4.7 12.98451,8.8465 19.5875,11.6275 4.237,1.748 8.3675,2.1795 12.1575,2.1875 6.06599,-0.024 11.62701,-1.06525 17.425,-1.91125 0.374,-0.065 0.76425,-0.097 1.14625,-0.155 -7.96799,6.83799 -14.92101,14.23826 -20.8,21.12625 -4.952,5.81399 -9.13125,11.293 -12.44125,15.765 -3.268,4.448 -5.789,8.035 -6.895,9.45 -5.44799,7.08999 -7.7885,15.57051 -7.8375,24.0675 0.024,7.90399 2.12201,16.13201 7.57,23.085 2.716,3.439 6.326,6.4485 10.635,8.4975 4.302,2.065 9.22901,3.12125 14.36,3.12125 6.36699,-0.017 13.04176,-1.561 20.10875,-4.53 22.18198,-9.38299 45.04627,-15.636 62.25125,-19.49 8.60299,-1.919 15.79926,-3.252 20.81625,-4.09 0.944,-0.155 1.73275,-0.28475 2.51375,-0.41375 l 75.27,64.8875 0.0325,0.0163 0.025,0.0412 c -0.01,0.233 -0.12475,0.90825 -0.66875,1.91625 -0.87,1.683 -2.85425,3.878 -5.36625,5.415 -2.513,1.554 -5.43175,2.46425 -8.22875,2.45625 -0.993,0 -1.9525,0.16975 -2.8875,0.41375 -1.708,-0.374 -3.4155,-0.89425 -5.0975,-1.56125 -5.21199,-2.033 -10.0825,-5.3265 -13.5225,-8.1075 -1.724,-1.39 -3.09025,-2.64125 -4.00125,-3.51125 l -1.0075,-1 -0.22,-0.22875 -0.0325,-0.0312 H 340.7 c -3.351,-3.643 -9.0265,-3.8875 -12.6775,-0.5375 -3.651,3.351 -3.90275,9.02625 -0.54375,12.70125 0.3,0.309 4.81401,5.23626 12.205,10.31125 3.708,2.537 8.13951,5.1225 13.2375,7.1225 1.179,0.464 2.4065,0.894 3.6675,1.285 0.35,0.788 0.797,1.53675 1.325,2.24375 L 357.89,342.05 c 0.065,0.048 0.5535,1.5935 0.5125,3.5775 0.058,3.309 -1.14675,7.64375 -2.87875,10.03375 -0.845,1.22 -1.70675,1.99125 -2.54375,2.47125 -0.854,0.472 -1.71575,0.781 -3.33375,0.805 l -0.57875,-0.007 c -0.342,-0.016 -0.666,0.0415 -1,0.0575 h -0.0238 c -7.78999,0.033 -15.04151,-3.30975 -20.3925,-6.96875 -2.667,-1.805 -4.806,-3.64225 -6.245,-4.99125 -0.708,-0.667 -1.25225,-1.22025 -1.58625,-1.56125 l -0.34875,-0.37375 -0.0575,-0.0737 h -0.007 c -3.244,-3.724 -8.89475,-4.13125 -12.64375,-0.88625 -3.757,3.252 -4.16325,8.92025 -0.91125,12.67625 l -0.009,-0.006 c 0.35,0.39 4.49701,5.16925 11.71,10.08125 4.748,3.211 10.94476,6.53725 18.30375,8.45625 -0.081,0.212 -0.13075,0.423 -0.22875,0.635 -0.943,2.13 -2.2925,4.3255 -5.9675,6.4725 -2.481,1.416 -4.2535,2.15475 -5.4975,2.52875 -1.252,0.374 -1.95,0.448 -2.845,0.455 -1.162,0.017 -2.9115,-0.24475 -5.8225,-0.83875 -0.528,-0.113 -1.056,-0.1455 -1.585,-0.1775 -0.196,-0.082 -0.38175,-0.15525 -0.59375,-0.26125 -2.976,-1.399 -6.60375,-3.92725 -9.27875,-6.08125 -1.342,-1.065 -2.479,-2.0415 -3.26,-2.7325 l -0.87875,-0.7975 -0.2025,-0.195 -0.0413,-0.0312 c -3.586,-3.431 -9.27775,-3.30125 -12.70875,0.28375 -3.423,3.586 -3.2935,9.27825 0.2925,12.70125 0.187,0.17 3.96776,3.7975 9.26875,7.6025 0.943,0.667 1.984,1.34275 3.025,2.00875 -1.464,2.334 -2.9915,3.935 -4.4875,5 -2.391,1.643 -4.9925,2.423 -8.3425,2.44 -3,0.008 -6.53075,-0.7315 -10.05875,-2.2275 -1.171,-0.488 -2.31625,-1.17925 -3.47125,-1.82125 0.675,-2.521 1.048,-5.131 1.04,-7.75 0.008,-5.39099 -1.4715,-10.90425 -4.5125,-15.79125 -5.16299,-8.30199 -13.77451,-13.1805 -22.7925,-13.9775 0,-0.326 0.0563,-0.64975 0.0563,-0.98375 0.008,-5.91099 -1.61725,-11.97676 -4.95125,-17.34375 v 0.0163 C 235.78451,334.43976 225.00099,328.8935 214.04,328.9175 c -0.422,0 -0.85425,0.073 -1.27625,0.09 -0.553,-4.66 -2.08175,-9.278 -4.69875,-13.49 h 0.007 c -5.08199,-8.18799 -13.23001,-13.32525 -22.02,-14.93625 -0.056,-5.81399 -1.657,-11.74226 -4.935,-17.01125 h 0.007 c -6.21999,-10.00899 -17.01151,-15.5635 -27.9725,-15.5475 -5.92799,0 -11.96876,1.627 -17.34375,4.96 l -11.5375,7.1725 c -0.277,-0.634 -0.62675,-1.2525 -0.87875,-1.8875 -2.008,-4.805 -3.26825,-9.54575 -3.40625,-12.81375 l -0.26875,-5.0575 -38.5975,-33.695 z m 203.41,0.007 72.035,74.60375 -39.965,34.875 -0.26125,5.0575 c -0.138,2.894 -1.1215,6.976 -2.7725,11.205 -0.838,2.211 -1.862,4.441 -2.935,6.635 l -65.92,-56.82125 c -2.561,-2.211 -5.97575,-3.23675 -9.33375,-2.81375 -0.585,0.114 -48.93455,6.18002 -97.0475,26.46 -4.789,2.024 -8.383,2.651 -10.79,2.635 -1.959,0 -3.15525,-0.35075 -4.04125,-0.77375 -1.285,-0.626 -2.20375,-1.51225 -3.11375,-3.21125 -0.87,-1.674 -1.464,-4.14675 -1.455,-6.74875 -0.049,-3.74 1.285,-7.546 2.78,-9.35 1.863,-2.407 4.1385,-5.69125 7.2775,-9.93625 4.658,-6.30999 10.98501,-14.47476 18.53,-22.41875 7.52899,-7.94399 16.28751,-15.63626 25.4675,-21.03625 12.41699,-7.29299 22.99651,-9.122 33.0225,-9.155 6.17099,-0.008 12.08976,0.76375 17.86375,1.63375 5.78899,0.854 11.36626,1.87825 17.41625,1.91125 3.781,-0.008 7.88775,-0.43975 12.10875,-2.16375 l 0.0562,-0.0162 c 6.60299,-2.781 13.06651,-6.9275 19.5875,-11.6275 3.912,-2.83 7.766,-5.88675 11.49,-8.94375 z M 170.9425,289.895 l -10.17125,6.32625 c 0.927,1.496 1.341,3.07275 1.35,4.68375 -0.017,2.114 -0.77375,4.1315 -2.13875,5.7575 L 143.02,317.2 c -1.544,0.959 -2.95125,2.0725 -4.27625,3.2275 l -0.5775,0.36625 c -1.504,0.928 -3.08275,1.342 -4.70875,1.35 -3.017,-0.016 -5.911,-1.4875 -7.61,-4.2275 -0.927,-1.504 -1.35,-3.09 -1.35,-4.7 0.016,-3.033 1.47925,-5.91225 4.21125,-7.61125 L 148.46,293.335 c 1.504,-0.935 3.08225,-1.3405 4.69125,-1.3575 3.033,0.032 5.912,1.479 7.62,4.235 z m 9.15625,34.0375 c 3.041,0.016 5.91175,1.48075 7.61875,4.22875 0.927,1.504 1.342,3.07225 1.35,4.69125 -0.016,3.016 -1.47125,5.9115 -4.23625,7.6275 l -19.71875,12.2525 c -1.504,0.927 -3.082,1.35 -4.7,1.35 -3.025,-0.016 -5.91875,-1.48 -7.61875,-4.22 -0.928,-1.504 -1.342,-3.0975 -1.35,-4.7075 0.007,-2.097 0.7645,-4.11375 2.1225,-5.72375 l 16.97,-10.5625 c 1.537,-0.952 2.9275,-2.05625 4.2525,-3.21125 l 0.61875,-0.375 c 1.504,-0.935 3.08925,-1.35 4.69125,-1.35 z"
     style="display:inline;fill:#333333;fill-opacity:1"
     id="path2" /><path
     d="m 259.5225,383.09375 -10.17,6.3275 c 0.625,1 0.8945,2.041 0.9025,3.13 -0.016,2.025 -0.98425,3.952 -2.84625,5.115 l -16.9375,10.52125 c -1.008,0.634 -2.0495,0.90125 -3.1475,0.90125 -2.032,-0.008 -3.95925,-0.99175 -5.10625,-2.82875 -0.626,-1.017 -0.8945,-2.05825 -0.9025,-3.14625 0.024,-2.042 0.99225,-3.95325 2.82125,-5.09125 h 0.008 L 241.0975,387.485 c 1.033,-0.642 2.0665,-0.91125 3.1475,-0.91125 2.041,0.016 3.9515,0.984 5.0975,2.83 z"
     style="fill:#e1be6a;fill-opacity:1"
     id="path9" /><path
     d="m 259.5225,383.09375 -10.18,6.31 c -1.146,-1.846 -3.0565,-2.814 -5.0975,-2.83 -1.081,0 -2.1145,0.26925 -3.1475,0.91125 l -16.95375,10.5375 h -0.008 c -1.829,1.138 -2.79725,3.04925 -2.82125,5.09125 0.008,1.088 0.2765,2.12925 0.9025,3.14625 1.147,1.837 3.07425,2.82075 5.10625,2.82875 1.098,0 2.1395,-0.26725 3.1475,-0.90125 l 16.9375,-10.52125 c 1.862,-1.163 2.83025,-3.09 2.84625,-5.115 -0.008,-1.089 -0.2775,-2.13 -0.9025,-3.13 z"
     style="fill:#e1be6a;fill-opacity:1"
     id="path10" /><path
     d="m 214.0375,352.88125 c 3.033,0.007 5.912,1.471 7.62,4.22 0.926,1.505 1.341,3.082 1.35,4.7 -0.017,3.015 -1.47125,5.8925 -4.23625,7.6175 l -19.72625,12.2625 c -1.496,0.928 -3.074,1.35 -4.7,1.35 -3.017,-0.016 -5.91225,-1.48 -7.61125,-4.22 -0.927,-1.512 -1.341,-3.09075 -1.35,-4.70875 0.025,-3.033 1.4805,-5.902 4.2125,-7.61 l 19.75125,-12.27 c 1.504,-0.935 3.081,-1.34125 4.69,-1.34125 z"
     style="fill:#e1be6a;fill-opacity:1"
     id="path7" /></g>
</svg>
