<?xml version="1.0" encoding="UTF-8" standalone="no"?>
<!-- Uploaded to: SVG Repo, www.svgrepo.com, Generator: SVG Repo Mixer Tools -->

<svg
   height="800px"
   width="800px"
   version="1.1"
   id="_x32_"
   viewBox="0 0 512 512"
   xml:space="preserve"
   sodipodi:docname="homeSharerFormButton2.svg"
   inkscape:version="1.3.2 (091e20e, 2023-11-25, custom)"
   xmlns:inkscape="http://www.inkscape.org/namespaces/inkscape"
   xmlns:sodipodi="http://sodipodi.sourceforge.net/DTD/sodipodi-0.dtd"
   xmlns="http://www.w3.org/2000/svg"
   xmlns:svg="http://www.w3.org/2000/svg"><defs
   id="defs2" /><sodipodi:namedview
   id="namedview2"
   pagecolor="#ffffff"
   bordercolor="#000000"
   borderopacity="0.25"
   inkscape:showpageshadow="2"
   inkscape:pageopacity="0.0"
   inkscape:pagecheckerboard="0"
   inkscape:deskcolor="#d1d1d1"
   inkscape:zoom="1.07625"
   inkscape:cx="399.53542"
   inkscape:cy="400"
   inkscape:window-width="1920"
   inkscape:window-height="1057"
   inkscape:window-x="1912"
   inkscape:window-y="-8"
   inkscape:window-maximized="1"
   inkscape:current-layer="_x32_" />
<style
   type="text/css"
   id="style1">
	.st0{fill:#000000;}
</style>
<g
   id="g2">
	<path
   class="st0"
   d="M505.837,180.418L279.265,76.124c-7.349-3.385-15.177-5.093-23.265-5.093c-8.088,0-15.914,1.708-23.265,5.093   L6.163,180.418C2.418,182.149,0,185.922,0,190.045s2.418,7.896,6.163,9.627l226.572,104.294c7.349,3.385,15.177,5.101,23.265,5.101   c8.088,0,15.916-1.716,23.267-5.101l178.812-82.306v82.881c-7.096,0.8-12.63,6.84-12.63,14.138c0,6.359,4.208,11.864,10.206,13.618   l-12.092,79.791h55.676l-12.09-79.791c5.996-1.754,10.204-7.259,10.204-13.618c0-7.298-5.534-13.338-12.63-14.138v-95.148   l21.116-9.721c3.744-1.731,6.163-5.504,6.163-9.627S509.582,182.149,505.837,180.418z"
   id="path1"
   style="fill:#ffb000;fill-opacity:1" />
	<path
   class="st0"
   d="M256,346.831c-11.246,0-22.143-2.391-32.386-7.104L112.793,288.71v101.638   c0,22.314,67.426,50.621,143.207,50.621c75.782,0,143.209-28.308,143.209-50.621V288.71l-110.827,51.017   C278.145,344.44,267.25,346.831,256,346.831z"
   id="path2"
   style="fill:#ffb000;fill-opacity:1" />
</g>
</svg>
