<?xml version="1.0" encoding="UTF-8" standalone="no"?>
<!-- Uploaded to: SVG Repo, www.svgrepo.com, Generator: SVG Repo Mixer Tools -->

<svg
   height="800px"
   width="800px"
   version="1.1"
   id="_x32_"
   viewBox="0 -100 512 732"
   xml:space="preserve"
   sodipodi:docname="reciprocity.svg"
   inkscape:version="1.3.2 (091e20e, 2023-11-25, custom)"
   xmlns:inkscape="http://www.inkscape.org/namespaces/inkscape"
   xmlns:sodipodi="http://sodipodi.sourceforge.net/DTD/sodipodi-0.dtd"
   xmlns="http://www.w3.org/2000/svg"
   xmlns:svg="http://www.w3.org/2000/svg"><defs
   id="defs3" /><sodipodi:namedview
   id="namedview3"
   pagecolor="#ffffff"
   bordercolor="#000000"
   borderopacity="0.25"
   inkscape:showpageshadow="2"
   inkscape:pageopacity="0.0"
   inkscape:pagecheckerboard="0"
   inkscape:deskcolor="#d1d1d1"
   inkscape:zoom="1.52625"
   inkscape:cx="399.6724"
   inkscape:cy="400"
   inkscape:window-width="2560"
   inkscape:window-height="1417"
   inkscape:window-x="1912"
   inkscape:window-y="-8"
   inkscape:window-maximized="1"
   inkscape:current-layer="_x32_" />
<style
   type="text/css"
   id="style1">
	.st0{fill:#000000;}
</style>
<g
   id="g3">
	
	<path
   d="m 200.39125,281.80875 c -61.79294,0 -81.35577,25.73852 -102.98875,47.3625 l -39.23125,34.275 c -2.560997,2.219 -4.01875,5.41125 -4.01875,8.80625 v 113.90125 c 0,1.518 0.896251,2.90525 2.28125,3.53625 1.385999,0.632 3.018751,0.41275 4.15875,-0.59625 l 75.83,-65.0125 c 2.666,-2.273 6.24525,-3.22825 9.70125,-2.60625 L 264.29,442.95875 c 8.24599,1.491 16.72001,-0.40225 23.58,-5.23625 0,0 150.83476,-104.88576 161.95875,-114.14875 10.61599,-9.74599 10.50999,-23.87826 0.755,-34.50125 -9.75499,-10.62399 -27.93151,-8.37074 -40.0725,0.62125 C 399.40526,298.94974 323.505,348.83 323.505,348.83 h -92.2525 l -0.28,0.14 c -4.842,-0.157 -8.6675,-4.2275 -8.5275,-9.0875 0.193,-4.85 4.26325,-8.657 9.10625,-8.5 l -0.29875,-0.1575 h 67.97 c 13.64999,0 24.72125,-11.06276 24.72125,-24.70375 0,-13.64999 -11.07126,-24.7125 -24.72125,-24.7125 z"
   style="fill:#e1be6a;fill-opacity:1"
   id="path4" /><path
   d="m 200.39,259.85 c -16.24698,0 -30.19451,1.65825 -42.2825,4.53625 -18.15898,4.298 -32.17901,11.36826 -43.495,19.35125 -11.31699,7.99199 -19.913008,16.83501 -27.545,24.625 -1.578998,1.614 -3.124002,3.211 -4.685,4.755 l -38.67,33.79125 c -7.298993,6.38699 -11.51,15.62376 -11.51,25.34375 v 113.90375 c 0,10.13299 5.931009,19.326 15.125,23.52 v -0.009 c 3.368997,1.535 7.035504,2.34275 10.7375,2.33375 6.227994,-0.009 12.247005,-2.23725 16.86,-6.28125 l 72.0575,-61.7675 113.3775,20.59625 c 3.14,0.58 6.31575,0.86125 9.47375,0.86125 11.01799,0 21.66776,-3.36926 30.59875,-9.68625 l -0.035,0.0275 c 7.75399,-5.39499 45.68729,-31.77478 83.11125,-58.01375 18.71998,-13.10599 37.28276,-26.17801 51.93375,-36.565 7.29899,-5.20999 13.6325,-9.72725 18.4925,-13.27125 2.439,-1.763 4.50925,-3.28025 6.17625,-4.52625 1.667,-1.246 2.8945,-2.202 3.7725,-2.93 v 0.009 l 0.29875,-0.245 0.12125,-0.10625 0.38625,-0.35875 c 4.738,-4.342 8.45675,-9.42951 11.05375,-14.9925 2.562,-5.56999 3.98275,-11.61476 4.05375,-17.80875 v -0.56125 c 0,-11.70299 -4.72026,-23.09076 -13.03625,-32.14375 v 0.009 c -4.228,-4.615 -9.38576,-8.18675 -15.12375,-10.58875 -5.73799,-2.395 -12.05426,-3.62375 -18.61625,-3.62375 -6.22799,0.009 -12.52776,1.115 -18.56375,3.15 -6.00899,2.044 -11.76326,5.00975 -16.92125,8.80875 l -0.42875,0.315 -0.14,0.0875 -0.49125,0.42125 c -0.562,0.474 -1.632,1.29825 -3.035,2.31625 -4.913,3.641 -14.00076,9.91301 -24.77375,17.23 -7.07099,4.79 -14.89701,10.03526 -22.81,15.31625 0.018,-0.386 0.035,-0.7725 0.035,-1.1575 0,-12.85199 -5.24601,-24.56376 -13.685,-32.99375 -8.43999,-8.43099 -20.12501,-13.6775 -32.985,-13.6775 z m 0.001,21.95875 h 98.83125 c 13.64999,0 24.72125,11.06251 24.72125,24.7125 0,13.64099 -11.07126,24.70375 -24.72125,24.70375 h -67.97 l 0.29875,0.1575 c -4.843,-0.157 -8.91325,3.65 -9.10625,8.5 -0.14,4.86 3.6855,8.9305 8.5275,9.0875 l 0.28,-0.14 h 92.2525 c 0,0 75.90026,-49.88026 87.00625,-59.13625 12.14099,-8.99199 30.31751,-11.24524 40.0725,-0.62125 9.75499,10.62299 9.86099,24.75526 -0.755,34.50125 C 438.70476,332.83674 287.87,437.7225 287.87,437.7225 c -6.85999,4.834 -15.33401,6.72725 -23.58,5.23625 L 146.12375,421.475 c -3.456,-0.622 -7.03525,0.33325 -9.70125,2.60625 l -75.83,65.0125 c -1.139999,1.009 -2.772751,1.22825 -4.15875,0.59625 -1.384999,-0.631 -2.28125,-2.01825 -2.28125,-3.53625 V 372.2525 c 0,-3.395 1.457753,-6.58725 4.01875,-8.80625 l 39.23125,-34.275 c 21.63298,-21.62398 41.19581,-47.3625 102.98875,-47.3625 z"
   style="fill:#333333"
   id="path1" />
	<path
   class="st0"
   d="M216.374,204.32c20.142,13.791,45.477,23.897,45.477,23.897c2.334,0.754,5.93,1.421,7.176,1.421   c1.245,0,4.842-0.667,7.193-1.421c0,0,25.318-10.106,45.477-23.897c30.669-20.905,80.41-61.952,80.41-119.789   c0-58.688-33.195-85.278-69.706-84.515c-27.845,0.518-44.302,16.966-55.338,33.187c-2.018,3-5.036,4.93-8.035,5.018   c-3-0.088-6.001-2.018-8.018-5.018c-11.054-16.221-27.493-32.669-55.338-33.187c-36.528-0.763-69.724,25.826-69.724,84.515   C135.947,142.368,185.706,183.415,216.374,204.32z M188.987,36.747c2.807-3.422,6.299-6.343,10.299-8.764   c3.965-2.395,9.106-1.132,11.492,2.825c2.386,3.947,1.123,9.097-2.825,11.474c-2.631,1.588-4.562,3.272-6,5.036   c-2.913,3.579-8.176,4.114-11.773,1.201C186.617,45.607,186.074,40.344,188.987,36.747z M169.389,90.005   c0-5.57,0.579-10.755,1.825-15.536c1.176-4.466,5.737-7.141,10.194-5.974c4.474,1.167,7.14,5.738,5.983,10.202   c-0.808,3.096-1.281,6.877-1.281,11.308c0,4.43,0.456,9.474,1.421,15.15c1.526,9.089,5.386,17.528,11.036,25.449   c2.702,3.764,1.824,8.983-1.948,11.659c-3.755,2.693-8.965,1.807-11.667-1.938c-6.807-9.563-11.878-20.396-13.913-32.389   C169.967,101.523,169.389,95.558,169.389,90.005z"
   id="path3"
   style="fill:#dc3220;fill-opacity:1" />
</g>
</svg>
