<?xml version="1.0" encoding="UTF-8" standalone="no"?>
<!-- Uploaded to: SVG Repo, www.svgrepo.com, Generator: SVG Repo Mixer Tools -->

<svg
   version="1.0"
   id="Layer_1"
   width="800px"
   height="800px"
   viewBox="0 -5 64 85"
   enable-background="new 0 0 64 64"
   xml:space="preserve"
   sodipodi:docname="security.svg"
   inkscape:version="1.3.2 (091e20e, 2023-11-25, custom)"
   xmlns:inkscape="http://www.inkscape.org/namespaces/inkscape"
   xmlns:sodipodi="http://sodipodi.sourceforge.net/DTD/sodipodi-0.dtd"
   xmlns="http://www.w3.org/2000/svg"
   xmlns:svg="http://www.w3.org/2000/svg"><defs
   id="defs2" /><sodipodi:namedview
   id="namedview2"
   pagecolor="#ffffff"
   bordercolor="#000000"
   borderopacity="0.25"
   inkscape:showpageshadow="2"
   inkscape:pageopacity="0.0"
   inkscape:pagecheckerboard="0"
   inkscape:deskcolor="#d1d1d1"
   inkscape:zoom="1.52625"
   inkscape:cx="324.97952"
   inkscape:cy="370.51597"
   inkscape:window-width="2560"
   inkscape:window-height="1417"
   inkscape:window-x="1912"
   inkscape:window-y="-8"
   inkscape:window-maximized="1"
   inkscape:current-layer="Layer_1" />
<path
   d="m 32,37.636406 c -1.656998,0 -3,1.261551 -3,2.818125 0,1.224969 0.837001,2.257343 2,2.645313 v 4.869843 c 0,0.519485 0.447001,0.939376 1,0.939376 0.552999,0 1,-0.419891 1,-0.939376 v -4.869843 c 1.162999,-0.38797 2,-1.419405 2,-2.645313 0,-1.556574 -1.343002,-2.818125 -3,-2.818125 z"
   style="fill:#ffb000;stroke-width:1.032;fill-opacity:1"
   id="path10" /><path
   d="m 32,35.7575 c -2.761997,0 -5,2.102428 -5,4.697031 0,1.53215 0.791001,2.880147 2,3.737813 v 3.777343 c 0,1.556575 1.343002,2.818125 3,2.818125 1.656998,0 3,-1.26155 3,-2.818125 v -3.777343 c 1.208999,-0.856727 2,-2.205663 2,-3.737813 C 37,37.859928 34.761997,35.7575 32,35.7575 Z m 0,1.878906 c 1.656998,0 3,1.261551 3,2.818125 0,1.225908 -0.837001,2.257343 -2,2.645313 v 4.869843 c 0,0.519485 -0.447001,0.939376 -1,0.939376 -0.552999,0 -1,-0.419891 -1,-0.939376 v -4.869843 c -1.162999,-0.38797 -2,-1.420344 -2,-2.645313 0,-1.556574 1.343002,-2.818125 3,-2.818125 z"
   style="fill:#333333;stroke-width:1.032"
   id="path9" /><path
   id="path21"
   style="fill:#333333;stroke-width:1.032"
   d="m 32,1.939375 c -7.731976,0 -14,5.8881894 -14,13.151563 v 9.393906 h -6 c -2.2109934,0 -4,1.680662 -4,3.757656 v 30.060469 c 0,2.076994 1.7890066,3.757656 4,3.757656 h 40 c 2.210994,0 4,-1.680662 4,-3.757656 V 28.2425 c 0,-2.076994 -1.789006,-3.757656 -4,-3.757656 H 46 V 15.090938 C 46,7.8275644 39.731976,1.939375 32,1.939375 Z m 0,1.87875 c 6.626979,0 12,5.0474665 12,11.272813 v 9.393906 h -4 v -0.01625 H 24 v 0.01625 H 20 V 15.090938 C 20,8.8655915 25.373021,3.818125 32,3.818125 Z M 12,26.363594 h 40 c 1.103997,0 2,0.841818 2,1.878906 V 32 H 10 v -3.7575 c 0,-1.037088 0.896003,-1.878906 2,-1.878906 z M 10,33.87875 H 54 V 52.666719 H 10 Z m 0,20.666719 h 44 v 3.7575 c 0,1.037088 -0.896003,1.878906 -2,1.878906 H 12 c -1.103997,0 -2,-0.841818 -2,-1.878906 z M 32,1.9835631 c -7.215248,0 -13.065226,5.4955246 -13.065226,12.2734879 v 10.227793 h 4.355075 v -0.01769 -10.210101 c 0,-4.5186418 3.899984,-8.1822684 8.710151,-8.1822684 4.810168,0 8.710152,3.6636266 8.710152,8.1822684 v 10.210101 0.01769 h 4.355075 V 14.257051 C 45.065227,7.4790877 39.215249,1.9835631 32,1.9835631 Z M 12,26.363594 c -1.103999,0 -2,0.841816 -2,1.878906 V 32 h 44 v -3.7575 c 0,-1.03709 -0.896001,-1.878906 -2,-1.878906 z m -2,28.181875 v 3.7575 c 0,1.03709 0.896001,1.878906 2,1.878906 h 40 c 1.103999,0 2,-0.841816 2,-1.878906 v -3.7575 z" /><path
   d="m 13.2,54.545469 v 3.7575 c 0,1.03709 0.513164,1.878906 1.145454,1.878906 h 22.909092 c 0.632289,0 1.145454,-0.841816 1.145454,-1.878906 v -3.7575 z"
   style="fill:#3a3a3a;fill-opacity:1;stroke-width:0.781004"
   id="path11-4-0" /><path
   d="M 14.408995,26.363594 C 13.74163,26.363594 13.2,27.20541 13.2,28.2425 V 32 h 26.597871 v -3.7575 c 0,-1.03709 -0.54163,-1.878906 -1.208994,-1.878906 z"
   style="fill:#3a3a3a;fill-opacity:1;stroke-width:0.802374"
   id="path7-6-7" /><path
   d="m 25.599999,54.545469 v 3.7575 c 0,1.03709 0.513164,1.878906 1.145454,1.878906 h 22.909092 c 0.632289,0 1.145454,-0.841816 1.145454,-1.878906 v -3.7575 z"
   style="fill:#454545;fill-opacity:1;stroke-width:0.781004"
   id="path11-4" /><path
   d="m 26.745455,26.363594 c -0.632292,0 -1.145456,0.841816 -1.145456,1.878906 V 32 h 25.2 v -3.7575 c 0,-1.03709 -0.513164,-1.878906 -1.145454,-1.878906 z"
   style="fill:#454545;fill-opacity:1;stroke-width:0.781005"
   id="path7-6" />
<rect
   style="font-variation-settings:'wdth' 75, 'wght' 500;fill:#333333;fill-opacity:1;stroke:none;stroke-width:1.73746"
   id="rect26"
   width="5.1999998"
   height="20.651924"
   x="8"
   y="32.760033" /><rect
   style="font-variation-settings:'wdth' 75, 'wght' 500;fill:#333333;fill-opacity:1;stroke:none;stroke-width:1.73746"
   id="rect26-2"
   width="5.1999998"
   height="20.651924"
   x="50.799999"
   y="32.760033" /></svg>
